<?xml version="1.0" encoding="UTF-8"?>
<!-- The Best Svg Icon site in the world: iconSvg.co, Visit us! https://iconsvg.co -->
<svg width="800px" height="800px" version="1.1" viewBox="144 144 512 512" xmlns="http://www.w3.org/2000/svg">
 <defs>
  <clipPath id="a">
   <path d="m148.09 209h503.81v382h-503.81z"/>
  </clipPath>
 </defs>
 <g clip-path="url(#a)">
  <path d="m549.02 274.44c0-6.0664 4.9062-10.984 10.973-10.984s10.984 4.918 10.984 10.984-4.918 10.973-10.984 10.973c-6.0547 0-10.973-4.9062-10.973-10.973m-340.16-10.426c-17.703 17.199-30.926 39.254-37.727 63.941-6.5 23.629-7.3359 38.723-7.6289 62.867-0.17969 13.695-1.0586 25.746-2.6289 36.145-2.3164 15.297-6.0859 26.703-11.246 34.27-2.7695 4.0625-1.7227 9.6133 2.3359 12.395 4.0625 2.7695 9.6133 1.7227 12.395-2.3359 5.5977-8.2188 9.8281-19.23 12.648-33.105 2.0664 5.1406 4.5039 10.488 7.3047 16.426 3.6484 7.6992 6.2773 15.184 8 22.812 1.6914 7.5859 2.5 15.469 2.5 24.023v82.734c0 3.6875 3.0117 6.1875 6.5898 6.0273h57.555c3.3164 0 6.0273-2.6992 6.0273-6.0273l0.019531-67.52c0-12.938 3.6797-35.004 13.047-51.922 6.0859-10.973 14.57-19.66 25.914-21.555 10.195-1.6914 20.746-1.9844 31.438-2.2578 22.469-0.60547 45.605-1.2188 69.113-14.047 3.0742-1.6719 4.9688-0.34375 6.4297 2.3359 1.832 3.3438 3.375 8.2227 4.9961 13.281 1.5234 4.7969 3.1133 9.7852 5.1289 14.289 3.0547 6.8008 5.2695 13.391 6.6992 20.121 1.4297 6.6797 2.1055 13.602 2.1055 21.098v86.16c0 3.6875 3.0039 6.1875 6.5898 6.0273h57.281c3.5664 0 6.0469-2.8828 6.0469-6.3086v-60.508c0-13.301 0.96875-31.992 2.5195-52.094 1.6406-21.008 3.918-43.418 6.418-62.793 1.2109-9.3906 7.9688-11.598 16.547-10.883 8.8164 0.74609 15.203 0.36328 20.816-0.13281 4.082-0.37109 8.1914-0.85547 12.273-0.875 10.43-0.050781 19.871 7.2656 26.691 17.684 4.5938 7.0039 7.9492 15.387 9.6641 23.949 1.6914 8.4727 1.7617 17.07-0.20312 24.586-2.5 9.582-8.4453 17.531-18.75 21.199-2.7617 0.96875-4.3633 3.75-3.9609 6.5508l2.6992 28.285c0.37109 3.918 3.6289 5.6914 7.1836 5.4023 66.895-6.1445 73.93-73.387 68.879-132.81-1.7852-21.09-5.1484-41.273-7.7578-57.02-2.1172-12.688-3.7383-24.988-7.2539-37.441-10.387-36.746-30.43-60.145-54.621-73.406-24.102-13.191-52.164-16.152-78.754-12.16-6.4648 0.98047-12.945 2.3945-19.262 4.1875-32.387 9.1289-59.34 12.988-86.07 13.977-26.781 0.99609-53.727-0.89844-85.738-3.2031l-9.7148-0.36328c-35.91-0.003906-68.398 14.508-92.539 37.996z" fill-rule="evenodd"/>
 </g>
</svg>